<!-- Generator: Adobe Illustrator 19.0.0, SVG Export Plug-In  -->
<svg version="1.1" xmlns="http://www.w3.org/2000/svg" viewBox="0 0 32 32">
<defs>
</defs>
<g id="XMLID_15_">
	<path fill="rgba(230, 57, 70, 0.12)" fill-rule="evenodd" d="M28.26,14.52c-0.12-0.78-0.67-1.27-1.23-1.74c-0.28-0.23-0.56-0.46-0.81-0.72
		c-0.35-0.36-0.66-0.77-1.02-1.13c-0.37-0.38-0.81-0.68-1.3-0.91c-0.28-0.13-0.56-0.25-0.84-0.35c-0.25-0.08-0.51-0.13-0.77-0.19
		c-0.19-0.04-0.37-0.09-0.56-0.09c-0.33-0.01-0.58-0.13-0.7-0.44c-0.2-0.5-0.36-1.02-0.57-1.51c-0.26-0.62-0.51-1.24-0.83-1.82
		c-0.27-0.48-0.63-0.9-0.96-1.34c-0.46-0.62-1.05-1.11-1.64-1.6c-0.07-0.06-0.13-0.13-0.21-0.19c-0.29-0.23-0.58-0.44-0.87-0.67
		c-0.12-0.09-0.21-0.22-0.32-0.32c-0.26-0.26-0.54-0.5-0.78-0.77c-0.17-0.19-0.3-0.42-0.46-0.62C14.32,0,14.23-0.05,14.15,0.06
		c-0.12,0.16-0.25,0.32-0.34,0.5c-0.08,0.17-0.12,0.36-0.18,0.54c-0.14,0.38-0.15,0.77-0.17,1.16c-0.03,0.51,0.03,1,0.17,1.49
		c0.06,0.21,0.18,0.4,0.37,0.51c0.26,0.14,0.55,0.23,0.8,0.39c0.5,0.32,0.99,0.67,1.48,1.02c0.54,0.39,1.03,0.84,1.45,1.36
		c0.28,0.34,0.54,0.7,0.81,1.05c0.04,0.05,0.04,0.13,0.05,0.2c-0.07-0.01-0.14-0.02-0.2-0.04c-0.02-0.01-0.04-0.04-0.06-0.06
		c-0.33-0.32-0.65-0.64-0.99-0.95c-0.35-0.31-0.7-0.62-1.08-0.89c-0.56-0.4-1.15-0.77-1.8-1.03c-0.38-0.15-0.76-0.31-1.14-0.46
		c-0.25-0.09-0.5-0.15-0.75-0.24c-0.31-0.1-0.61-0.22-0.92-0.32c-0.37-0.12-0.75-0.21-1.11-0.37C9.97,3.7,9.41,3.44,8.88,3.15
		C8.56,2.97,8.29,2.71,7.99,2.48c-0.18-0.14-0.4-0.06-0.42,0.17C7.54,3.03,7.51,3.41,7.51,3.79C7.5,4,7.55,4.22,7.57,4.43
		C7.61,5.2,7.79,5.94,8.04,6.67c0.11,0.33,0.27,0.65,0.42,1C8.08,7.85,7.7,8.01,7.34,8.2C6.6,8.59,5.87,8.98,5.15,9.4
		c-0.51,0.3-0.99,0.65-1.48,0.98c-0.47,0.33-0.88,0.72-1.28,1.13C1.94,12,1.58,12.54,1.44,13.19c-0.15,0.71-0.07,1.39,0.43,1.98
		c0.25,0.29,0.54,0.52,0.9,0.6c0.34,0.08,0.69,0.07,1.04,0.08c0.14,0,0.28-0.05,0.42-0.09c0.16-0.05,0.16-0.16,0.11-0.3
		c-0.07-0.19-0.15-0.39-0.17-0.6c-0.08-0.76,0.09-1.47,0.43-2.15c0.38-0.75,0.97-1.33,1.61-1.86c0.39-0.32,0.83-0.57,1.25-0.84
		C7.6,9.91,7.77,9.85,7.92,9.77C7.94,9.78,7.95,9.8,7.96,9.81c-0.04,0.21-0.08,0.43-0.14,0.64c-0.11,0.42-0.23,0.84-0.33,1.26
		c-0.12,0.48-0.23,0.97-0.34,1.46c-0.05,0.23-0.11,0.45-0.16,0.68c-0.1,0.49-0.21,0.98-0.3,1.46c-0.03,0.15-0.13,0.21-0.25,0.27
		c-0.47,0.21-0.94,0.39-1.39,0.63C4.6,16.45,4.15,16.72,3.7,17c-0.71,0.44-1.35,0.96-1.92,1.57c-0.47,0.5-0.84,1.06-1.16,1.66
		c-0.35,0.69-0.54,1.43-0.59,2.2c-0.05,0.76-0.04,1.53,0.15,2.27c0.16,0.61,0.39,1.19,0.8,1.69c0.27,0.33,0.56,0.63,0.92,0.86
		c0.5,0.32,1.03,0.48,1.62,0.45c0.24-0.01,0.49-0.04,0.73-0.07c0.53-0.05,1-0.26,1.45-0.52c0.65-0.37,1.18-0.88,1.65-1.45
		c0.27-0.33,0.51-0.69,0.73-1.06c0.36-0.6,0.67-1.24,0.89-1.9c0.17-0.52,0.36-1.04,0.54-1.56c0.11-0.31,0.2-0.63,0.32-0.93
		c0.12-0.31,0.34-0.34,0.52-0.07c0.37,0.58,0.72,1.18,1.1,1.77c0.4,0.62,0.79,1.25,1.23,1.85c0.41,0.56,0.86,1.1,1.32,1.63
		c0.49,0.56,1.05,1.06,1.67,1.46c0.37,0.24,0.76,0.46,1.16,0.62c0.41,0.16,0.84,0.26,1.27,0.37c0.21,0.05,0.43,0.05,0.64,0.09
		c0.7,0.13,1.4,0.06,2.1-0.03c0.38-0.05,0.76-0.15,1.13-0.28c0.39-0.13,0.76-0.31,1.14-0.48c0.41-0.19,0.73-0.49,1.02-0.82
		c0.04-0.04,0.07-0.1,0.1-0.14c-0.07-0.03-0.13-0.08-0.2-0.08c-0.58,0-1.12-0.2-1.57-0.53c-0.54-0.4-0.83-0.99-0.87-1.68
		c-0.01-0.25-0.04-0.51,0-0.76c0.07-0.45,0.15-0.9,0.31-1.32c0.15-0.4,0.38-0.77,0.64-1.13c0.44-0.61,0.96-1.13,1.61-1.5
		c0.59-0.34,1.21-0.63,1.82-0.93c0.43-0.21,0.83-0.46,1.18-0.79c0.38-0.37,0.72-0.78,0.9-1.29c0.09-0.25,0.16-0.51,0.19-0.77
		C28.27,15.11,28.3,14.81,28.26,14.52z M6.15,17.74c-0.09,0.38-0.18,0.77-0.28,1.15c-0.09,0.38-0.19,0.76-0.28,1.14
		c-0.09,0.38-0.19,0.76-0.28,1.13c-0.09,0.37-0.19,0.75-0.28,1.12c-0.16,0.61-0.32,1.22-0.49,1.83C4.4,24.56,4.26,25,4.11,25.44
		C4,25.76,3.74,25.92,3.43,25.95C3.2,25.98,3,25.85,2.84,25.7c-0.32-0.32-0.47-0.73-0.52-1.17c-0.05-0.45-0.09-0.91-0.1-1.36
		c-0.01-0.53,0.08-1.04,0.22-1.55c0.38-1.38,1.18-2.48,2.28-3.37c0.17-0.14,0.33-0.28,0.51-0.4c0.31-0.21,0.64-0.39,0.96-0.59
		c0.02,0.01,0.03,0.02,0.05,0.03C6.21,17.44,6.18,17.59,6.15,17.74z M11.42,16.79c-0.28,0.15-0.54,0.33-0.8,0.51
		c-0.07,0.05-0.11,0.13-0.17,0.19c-0.02-0.01-0.03-0.02-0.05-0.03c0.49-2.3,0.98-4.59,1.48-6.9c0.21,0.13,0.41,0.25,0.61,0.36
		c0.44,0.24,0.89,0.45,1.32,0.71c0.4,0.24,0.82,0.46,1.14,0.81c0.46,0.49,0.63,1.31,0.32,1.9c-0.22,0.42-0.56,0.71-0.95,0.98
		c-0.47,0.32-1,0.53-1.51,0.78C12.36,16.34,11.88,16.55,11.42,16.79z M26.78,15.35c-0.14,0.53-0.48,0.91-0.89,1.22
		c-0.32,0.24-0.66,0.44-1.01,0.62c-0.51,0.26-1.04,0.48-1.55,0.73c-0.69,0.34-1.37,0.71-1.96,1.2c-0.45,0.38-0.88,0.77-1.19,1.28
		c-0.18,0.28-0.37,0.56-0.52,0.86c-0.11,0.22-0.19,0.47-0.23,0.71c-0.06,0.41-0.11,0.82-0.11,1.24c0,0.65,0.22,1.23,0.62,1.74
		c0.09,0.11,0.18,0.23,0.27,0.34c-0.01,0.01-0.02,0.03-0.04,0.04c-0.11-0.05-0.23-0.09-0.32-0.16c-0.75-0.55-1.47-1.13-2.09-1.83
		c-0.3-0.35-0.64-0.66-0.94-1.02c-0.35-0.43-0.68-0.88-1.01-1.32c-0.36-0.47-0.71-0.95-1.05-1.43c-0.26-0.37-0.51-0.75-0.78-1.11
		c-0.16-0.21-0.37-0.39-0.56-0.59c0.4-0.13,0.8-0.24,1.18-0.4c0.32-0.14,0.63-0.31,0.92-0.51c0.28-0.19,0.54-0.41,0.78-0.65
		c0.43-0.42,0.7-0.94,0.85-1.52c0.12-0.44,0.12-0.89,0.05-1.33c-0.05-0.32-0.17-0.63-0.36-0.93c-0.18-0.29-0.4-0.52-0.64-0.74
		c-0.35-0.33-0.78-0.57-1.21-0.79c-0.71-0.35-1.42-0.71-2.11-1.09c-0.23-0.13-0.42-0.33-0.63-0.51c-0.33-0.29-0.69-0.55-0.99-0.88
		c-0.35-0.39-0.67-0.82-0.97-1.26C9.93,6.74,9.67,6.16,9.46,5.55c-0.01-0.04,0-0.09,0-0.13c0.26,0.07,0.5,0.13,0.75,0.2
		c0.22,0.06,0.44,0.12,0.66,0.19c0.28,0.08,0.56,0.15,0.83,0.24c0.25,0.07,0.5,0.15,0.74,0.24c0.39,0.15,0.78,0.3,1.16,0.47
		c0.26,0.11,0.52,0.23,0.76,0.38c0.37,0.23,0.73,0.47,1.08,0.73c0.78,0.57,1.44,1.26,2.07,1.99c0.27,0.31,0.58,0.6,0.92,0.84
		c0.45,0.32,0.98,0.38,1.52,0.24c0.01,0,0.02-0.01,0.03-0.01c0.51-0.03,1.02-0.1,1.52-0.06c0.73,0.06,1.4,0.31,2.02,0.73
		c0.6,0.41,1.1,0.92,1.62,1.41c0.32,0.3,0.68,0.54,1.03,0.81C26.67,14.2,26.97,14.6,26.78,15.35z,M26.17,13.8c-0.34-0.27-0.71-0.51-1.03-0.81c-0.53-0.49-1.03-1-1.62-1.41
		c-0.61-0.42-1.29-0.67-2.02-0.73c-0.5-0.04-1.01,0.04-1.52,0.06c-0.01,0-0.02,0-0.03,0.01c-0.54,0.14-1.06,0.09-1.52-0.24
		c-0.34-0.24-0.65-0.53-0.92-0.84c-0.63-0.72-1.3-1.42-2.07-1.99c-0.35-0.26-0.71-0.5-1.08-0.73c-0.24-0.15-0.5-0.27-0.76-0.38
		c-0.38-0.17-0.77-0.32-1.16-0.47c-0.24-0.09-0.49-0.16-0.74-0.24c-0.28-0.08-0.55-0.16-0.83-0.24c-0.22-0.06-0.44-0.13-0.66-0.19
		c-0.24-0.07-0.49-0.13-0.75-0.2c0,0.04-0.01,0.09,0,0.13c0.21,0.6,0.47,1.19,0.83,1.71c0.3,0.44,0.62,0.87,0.97,1.26
		c0.29,0.32,0.65,0.59,0.99,0.88c0.2,0.18,0.4,0.38,0.63,0.51c0.69,0.38,1.4,0.73,2.11,1.09c0.43,0.22,0.86,0.45,1.21,0.79
		c0.24,0.22,0.46,0.46,0.64,0.74c0.18,0.29,0.31,0.61,0.36,0.93c0.07,0.44,0.06,0.89-0.05,1.33c-0.15,0.58-0.42,1.1-0.85,1.52
		c-0.24,0.24-0.5,0.46-0.78,0.65c-0.29,0.2-0.6,0.37-0.92,0.51c-0.38,0.16-0.78,0.27-1.18,0.4c0.19,0.2,0.39,0.38,0.56,0.59
		c0.27,0.36,0.52,0.74,0.78,1.11c0.35,0.48,0.7,0.96,1.05,1.43c0.33,0.45,0.66,0.9,1.01,1.32c0.29,0.35,0.63,0.67,0.94,1.02
		c0.62,0.7,1.34,1.29,2.09,1.83c0.1,0.07,0.22,0.11,0.32,0.16c0.01-0.01,0.02-0.03,0.04-0.04c-0.09-0.11-0.18-0.23-0.27-0.34
		c-0.4-0.51-0.62-1.1-0.62-1.74c0-0.41,0.05-0.83,0.11-1.24c0.04-0.24,0.12-0.49,0.23-0.71c0.15-0.3,0.35-0.57,0.52-0.86
		c0.31-0.51,0.74-0.9,1.19-1.28c0.59-0.5,1.27-0.87,1.96-1.2c0.51-0.25,1.04-0.47,1.55-0.73c0.35-0.18,0.69-0.39,1.01-0.62
		c0.42-0.31,0.76-0.69,0.89-1.22C26.97,14.6,26.67,14.2,26.17,13.8z M22.89,14.14c-0.33,0.15-0.67,0.29-1.01,0.43
		c-0.47,0.18-1.12-0.05-1.39-0.46c-0.2-0.31-0.16-0.85,0.11-1.17c0.33-0.38,0.77-0.44,1.21-0.36c0.2,0.04,0.4,0.2,0.54,0.36
		c0.28,0.31,0.52,0.66,0.79,1.01C23.06,14.02,22.98,14.1,22.89,14.14z,M5.23,17.84c-0.18,0.12-0.34,0.26-0.51,0.4c-1.1,0.9-1.9,1.99-2.28,3.37
		c-0.14,0.51-0.23,1.03-0.22,1.55c0.01,0.46,0.05,0.91,0.1,1.36c0.04,0.44,0.2,0.85,0.52,1.17C3,25.85,3.2,25.98,3.43,25.95
		c0.32-0.04,0.57-0.19,0.68-0.51c0.15-0.44,0.3-0.88,0.42-1.32c0.17-0.61,0.33-1.22,0.49-1.83c0.1-0.37,0.19-0.75,0.28-1.12
		c0.1-0.38,0.19-0.76,0.28-1.13c0.09-0.38,0.19-0.76,0.28-1.14c0.09-0.38,0.19-0.77,0.28-1.15c0.04-0.15,0.06-0.31,0.09-0.46
		c-0.02-0.01-0.03-0.02-0.05-0.03C5.87,17.45,5.54,17.64,5.23,17.84z"/>
	<path fill="rgba(230, 57, 70, 0.12)" fill-rule="evenodd" d="M21.82,12.57c-0.45-0.09-0.88-0.02-1.21,0.36c-0.27,0.32-0.31,0.86-0.11,1.17
		c0.27,0.42,0.92,0.65,1.39,0.46c0.34-0.13,0.68-0.28,1.01-0.43c0.09-0.04,0.16-0.12,0.26-0.19c-0.27-0.35-0.51-0.7-0.79-1.01
		C22.22,12.78,22.02,12.61,21.82,12.57z"/>
</g>
</svg>
